<?xml version="1.0" encoding="UTF-8"?>
<svg id="Layer_118" xmlns="http://www.w3.org/2000/svg" xmlns:xlink="http://www.w3.org/1999/xlink" version="1.1" viewBox="0 0 55 28">
  <!-- Generator: Adobe Illustrator 29.3.1, SVG Export Plug-In . SVG Version: 2.1.0 Build 151)  -->
  <defs>
    <style>
      .st0 {
        fill: #b7b7b7;
      }
    </style>
  </defs>
  <g>
    <path class="st0" d="M19.8,8.9h-11.8c-.3,0-.5-.2-.5-.5s.2-.5.5-.5h11.8c.3,0,.5.2.5.5s-.2.5-.5.5Z"/>
    <path class="st0" d="M19.8,12.6h-11.8c-.3,0-.5-.2-.5-.5s.2-.5.5-.5h11.8c.3,0,.5.2.5.5s-.2.5-.5.5Z"/>
    <path class="st0" d="M19.8,16.4h-11.8c-.3,0-.5-.2-.5-.5s.2-.5.5-.5h11.8c.3,0,.5.2.5.5s-.2.5-.5.5Z"/>
    <path class="st0" d="M19.8,20.1h-11.8c-.3,0-.5-.2-.5-.5s.2-.5.5-.5h11.8c.3,0,.5.2.5.5s-.2.5-.5.5Z"/>
  </g>
  <g>
    <path class="st0" d="M39.7,13.4h-4.1c-.5,0-.9-.4-.9-.9v-4.1c0-.5.4-.9.9-.9h4.1c.5,0,.9.4.9.9v4.1c0,.5-.4.9-.9.9ZM35.7,12.4h3.9v-3.9h-3.9v3.9ZM39.7,8.5h0,0Z"/>
    <path class="st0" d="M46.6,13.4h-4.1c-.5,0-.9-.4-.9-.9v-4.1c0-.5.4-.9.9-.9h4.1c.5,0,.9.4.9.9v4.1c0,.5-.4.9-.9.9ZM42.6,12.4h3.9v-3.9h-3.9v3.9ZM46.6,8.5h0,0Z"/>
    <path class="st0" d="M39.7,20.5h-4.1c-.5,0-.9-.4-.9-.9v-4.1c0-.5.4-.9.9-.9h4.1c.5,0,.9.4.9.9v4.1c0,.5-.4.9-.9.9ZM35.7,19.5h3.9v-3.9h-3.9v3.9ZM39.7,15.6h0,0Z"/>
    <path class="st0" d="M46.6,20.5h-4.1c-.5,0-.9-.4-.9-.9v-4.1c0-.5.4-.9.9-.9h4.1c.5,0,.9.4.9.9v4.1c0,.5-.4.9-.9.9ZM42.6,19.5h3.9v-3.9h-3.9v3.9ZM46.6,15.6h0,0Z"/>
  </g>
</svg>